<mxfile host="app.diagrams.net" modified="2023-12-17T13:54:29.881Z" agent="Mozilla/5.0 (Macintosh; Intel Mac OS X 10_15_7) AppleWebKit/605.1.15 (KHTML, like Gecko) Version/16.6 Safari/605.1.15" etag="-Ki2ZmH8C-zYRW0iyWpC" version="22.1.11" type="github">
  <diagram id="C5RBs43oDa-KdzZeNtuy" name="Page-1">
    <mxGraphModel dx="814" dy="540" grid="1" gridSize="10" guides="1" tooltips="1" connect="1" arrows="1" fold="1" page="1" pageScale="1" pageWidth="1169" pageHeight="1654" math="0" shadow="0">
      <root>
        <mxCell id="WIyWlLk6GJQsqaUBKTNV-0" />
        <mxCell id="WIyWlLk6GJQsqaUBKTNV-1" parent="WIyWlLk6GJQsqaUBKTNV-0" />
        <mxCell id="7ZgR7wb_IzAUQrREWjO4-7" style="edgeStyle=orthogonalEdgeStyle;rounded=0;orthogonalLoop=1;jettySize=auto;html=1;exitX=0.5;exitY=1;exitDx=0;exitDy=0;exitPerimeter=0;" edge="1" parent="WIyWlLk6GJQsqaUBKTNV-1" source="7ZgR7wb_IzAUQrREWjO4-0" target="7ZgR7wb_IzAUQrREWjO4-4">
          <mxGeometry relative="1" as="geometry" />
        </mxCell>
        <mxCell id="7ZgR7wb_IzAUQrREWjO4-0" value="시작" style="strokeWidth=2;html=1;shape=mxgraph.flowchart.terminator;whiteSpace=wrap;" vertex="1" parent="WIyWlLk6GJQsqaUBKTNV-1">
          <mxGeometry x="180" y="21" width="60" height="30" as="geometry" />
        </mxCell>
        <mxCell id="7ZgR7wb_IzAUQrREWjO4-1" value="javascript 코드 토큰열, 현재 인덱스 = 0, identifier_hashed_dict" style="text;html=1;align=center;verticalAlign=middle;resizable=0;points=[];autosize=1;strokeColor=none;fillColor=none;" vertex="1" parent="WIyWlLk6GJQsqaUBKTNV-1">
          <mxGeometry x="260" y="21" width="340" height="30" as="geometry" />
        </mxCell>
        <mxCell id="7ZgR7wb_IzAUQrREWjO4-43" style="edgeStyle=orthogonalEdgeStyle;rounded=0;orthogonalLoop=1;jettySize=auto;html=1;exitX=0.5;exitY=1;exitDx=0;exitDy=0;entryX=0.5;entryY=0;entryDx=0;entryDy=0;" edge="1" parent="WIyWlLk6GJQsqaUBKTNV-1" source="7ZgR7wb_IzAUQrREWjO4-3" target="7ZgR7wb_IzAUQrREWjO4-42">
          <mxGeometry relative="1" as="geometry" />
        </mxCell>
        <mxCell id="7ZgR7wb_IzAUQrREWjO4-3" value="현재 인덱스 뒤로 객체 리터럴 시작 위치 탐색&lt;br&gt;(리터럴 시작 인덱스) = (탐색된 인덱스)" style="rounded=0;whiteSpace=wrap;html=1;" vertex="1" parent="WIyWlLk6GJQsqaUBKTNV-1">
          <mxGeometry x="90" y="230" width="240" height="50" as="geometry" />
        </mxCell>
        <mxCell id="7ZgR7wb_IzAUQrREWjO4-4" value="(현재 인덱스) &amp;lt; (토큰열 길이)" style="strokeWidth=2;html=1;shape=mxgraph.flowchart.decision;whiteSpace=wrap;" vertex="1" parent="WIyWlLk6GJQsqaUBKTNV-1">
          <mxGeometry x="90" y="71" width="240" height="50" as="geometry" />
        </mxCell>
        <mxCell id="7ZgR7wb_IzAUQrREWjO4-29" style="edgeStyle=orthogonalEdgeStyle;rounded=0;orthogonalLoop=1;jettySize=auto;html=1;exitX=1;exitY=0.5;exitDx=0;exitDy=0;exitPerimeter=0;entryX=0.5;entryY=0;entryDx=0;entryDy=0;" edge="1" parent="WIyWlLk6GJQsqaUBKTNV-1" source="7ZgR7wb_IzAUQrREWjO4-6" target="7ZgR7wb_IzAUQrREWjO4-30">
          <mxGeometry relative="1" as="geometry">
            <mxPoint x="210" y="780" as="targetPoint" />
            <Array as="points">
              <mxPoint x="400" y="410" />
              <mxPoint x="400" y="760" />
              <mxPoint x="210" y="760" />
            </Array>
          </mxGeometry>
        </mxCell>
        <mxCell id="7ZgR7wb_IzAUQrREWjO4-6" value="(리터럴 내부 인덱스) 뒤로 객체&lt;br&gt;리터럴 내부에 getter 존재" style="strokeWidth=2;html=1;shape=mxgraph.flowchart.decision;whiteSpace=wrap;" vertex="1" parent="WIyWlLk6GJQsqaUBKTNV-1">
          <mxGeometry x="90" y="385" width="240" height="50" as="geometry" />
        </mxCell>
        <mxCell id="7ZgR7wb_IzAUQrREWjO4-21" style="edgeStyle=orthogonalEdgeStyle;rounded=0;orthogonalLoop=1;jettySize=auto;html=1;exitX=0.5;exitY=1;exitDx=0;exitDy=0;exitPerimeter=0;entryX=0.5;entryY=0;entryDx=0;entryDy=0;" edge="1" parent="WIyWlLk6GJQsqaUBKTNV-1" source="7ZgR7wb_IzAUQrREWjO4-14" target="7ZgR7wb_IzAUQrREWjO4-18">
          <mxGeometry relative="1" as="geometry" />
        </mxCell>
        <mxCell id="7ZgR7wb_IzAUQrREWjO4-27" style="edgeStyle=orthogonalEdgeStyle;rounded=0;orthogonalLoop=1;jettySize=auto;html=1;exitX=1;exitY=0.5;exitDx=0;exitDy=0;exitPerimeter=0;" edge="1" parent="WIyWlLk6GJQsqaUBKTNV-1" source="7ZgR7wb_IzAUQrREWjO4-14">
          <mxGeometry relative="1" as="geometry">
            <mxPoint x="380" y="480" as="targetPoint" />
          </mxGeometry>
        </mxCell>
        <mxCell id="7ZgR7wb_IzAUQrREWjO4-14" value="(getter가 갖는 식별자) &lt;br&gt;not in 블랙리스트" style="strokeWidth=2;html=1;shape=mxgraph.flowchart.decision;whiteSpace=wrap;" vertex="1" parent="WIyWlLk6GJQsqaUBKTNV-1">
          <mxGeometry x="90" y="455" width="240" height="50" as="geometry" />
        </mxCell>
        <mxCell id="7ZgR7wb_IzAUQrREWjO4-15" style="edgeStyle=orthogonalEdgeStyle;rounded=0;orthogonalLoop=1;jettySize=auto;html=1;exitX=0.5;exitY=1;exitDx=0;exitDy=0;exitPerimeter=0;entryX=0.5;entryY=0;entryDx=0;entryDy=0;entryPerimeter=0;" edge="1" parent="WIyWlLk6GJQsqaUBKTNV-1" source="7ZgR7wb_IzAUQrREWjO4-6" target="7ZgR7wb_IzAUQrREWjO4-14">
          <mxGeometry relative="1" as="geometry" />
        </mxCell>
        <mxCell id="7ZgR7wb_IzAUQrREWjO4-22" style="edgeStyle=orthogonalEdgeStyle;rounded=0;orthogonalLoop=1;jettySize=auto;html=1;exitX=0.5;exitY=1;exitDx=0;exitDy=0;entryX=0.5;entryY=0;entryDx=0;entryDy=0;" edge="1" parent="WIyWlLk6GJQsqaUBKTNV-1" source="7ZgR7wb_IzAUQrREWjO4-18" target="7ZgR7wb_IzAUQrREWjO4-20">
          <mxGeometry relative="1" as="geometry" />
        </mxCell>
        <mxCell id="7ZgR7wb_IzAUQrREWjO4-18" value="" style="verticalLabelPosition=bottom;verticalAlign=top;html=1;shape=process;whiteSpace=wrap;rounded=1;size=0.041666666666666664;arcSize=12;" vertex="1" parent="WIyWlLk6GJQsqaUBKTNV-1">
          <mxGeometry x="90" y="525" width="240" height="60" as="geometry" />
        </mxCell>
        <mxCell id="7ZgR7wb_IzAUQrREWjO4-19" value="sha256(식별자 + SALT)" style="text;strokeColor=none;fillColor=none;align=center;verticalAlign=middle;spacingLeft=4;spacingRight=4;overflow=hidden;points=[[0,0.5],[1,0.5]];portConstraint=eastwest;rotatable=0;whiteSpace=wrap;html=1;" vertex="1" parent="WIyWlLk6GJQsqaUBKTNV-1">
          <mxGeometry x="120" y="540" width="180" height="30" as="geometry" />
        </mxCell>
        <mxCell id="7ZgR7wb_IzAUQrREWjO4-25" style="edgeStyle=orthogonalEdgeStyle;rounded=0;orthogonalLoop=1;jettySize=auto;html=1;exitX=0.5;exitY=1;exitDx=0;exitDy=0;" edge="1" parent="WIyWlLk6GJQsqaUBKTNV-1" source="7ZgR7wb_IzAUQrREWjO4-20" target="7ZgR7wb_IzAUQrREWjO4-24">
          <mxGeometry relative="1" as="geometry" />
        </mxCell>
        <mxCell id="7ZgR7wb_IzAUQrREWjO4-20" value="identifier_hashed_dict에 등록" style="rounded=0;whiteSpace=wrap;html=1;" vertex="1" parent="WIyWlLk6GJQsqaUBKTNV-1">
          <mxGeometry x="90" y="605" width="240" height="50" as="geometry" />
        </mxCell>
        <mxCell id="7ZgR7wb_IzAUQrREWjO4-26" style="edgeStyle=orthogonalEdgeStyle;rounded=0;orthogonalLoop=1;jettySize=auto;html=1;exitX=1;exitY=0.5;exitDx=0;exitDy=0;" edge="1" parent="WIyWlLk6GJQsqaUBKTNV-1" source="7ZgR7wb_IzAUQrREWjO4-24">
          <mxGeometry relative="1" as="geometry">
            <mxPoint x="210" y="360" as="targetPoint" />
            <Array as="points">
              <mxPoint x="380" y="700" />
              <mxPoint x="380" y="360" />
            </Array>
          </mxGeometry>
        </mxCell>
        <mxCell id="7ZgR7wb_IzAUQrREWjO4-24" value="getter 뒤로 (리터럴 내부 인덱스) 갱신" style="rounded=0;whiteSpace=wrap;html=1;" vertex="1" parent="WIyWlLk6GJQsqaUBKTNV-1">
          <mxGeometry x="90" y="675" width="240" height="50" as="geometry" />
        </mxCell>
        <mxCell id="7ZgR7wb_IzAUQrREWjO4-30" value="(리터럴 내부 인덱스) = (리터럴 시작 인덱스)" style="rounded=0;whiteSpace=wrap;html=1;" vertex="1" parent="WIyWlLk6GJQsqaUBKTNV-1">
          <mxGeometry x="90" y="795" width="240" height="50" as="geometry" />
        </mxCell>
        <mxCell id="7ZgR7wb_IzAUQrREWjO4-55" style="edgeStyle=orthogonalEdgeStyle;rounded=0;orthogonalLoop=1;jettySize=auto;html=1;exitX=1;exitY=0.5;exitDx=0;exitDy=0;exitPerimeter=0;entryX=0.5;entryY=0;entryDx=0;entryDy=0;" edge="1" parent="WIyWlLk6GJQsqaUBKTNV-1" source="7ZgR7wb_IzAUQrREWjO4-31" target="7ZgR7wb_IzAUQrREWjO4-53">
          <mxGeometry relative="1" as="geometry">
            <mxPoint x="400" y="1280" as="targetPoint" />
            <Array as="points">
              <mxPoint x="400" y="898" />
              <mxPoint x="400" y="1230" />
              <mxPoint x="210" y="1230" />
            </Array>
          </mxGeometry>
        </mxCell>
        <mxCell id="7ZgR7wb_IzAUQrREWjO4-31" value="(리터럴 내부 인덱스) 뒤로 객체&lt;br&gt;리터럴 내부에 method 존재" style="strokeWidth=2;html=1;shape=mxgraph.flowchart.decision;whiteSpace=wrap;" vertex="1" parent="WIyWlLk6GJQsqaUBKTNV-1">
          <mxGeometry x="90" y="873" width="240" height="50" as="geometry" />
        </mxCell>
        <mxCell id="7ZgR7wb_IzAUQrREWjO4-39" style="edgeStyle=orthogonalEdgeStyle;rounded=0;orthogonalLoop=1;jettySize=auto;html=1;exitX=0.5;exitY=1;exitDx=0;exitDy=0;exitPerimeter=0;entryX=0.5;entryY=0;entryDx=0;entryDy=0;" edge="1" parent="WIyWlLk6GJQsqaUBKTNV-1" source="7ZgR7wb_IzAUQrREWjO4-32" target="7ZgR7wb_IzAUQrREWjO4-33">
          <mxGeometry relative="1" as="geometry" />
        </mxCell>
        <mxCell id="7ZgR7wb_IzAUQrREWjO4-51" style="edgeStyle=orthogonalEdgeStyle;rounded=0;orthogonalLoop=1;jettySize=auto;html=1;exitX=1;exitY=0.5;exitDx=0;exitDy=0;exitPerimeter=0;" edge="1" parent="WIyWlLk6GJQsqaUBKTNV-1" source="7ZgR7wb_IzAUQrREWjO4-32">
          <mxGeometry relative="1" as="geometry">
            <mxPoint x="380" y="967.9310344827586" as="targetPoint" />
          </mxGeometry>
        </mxCell>
        <mxCell id="7ZgR7wb_IzAUQrREWjO4-32" value="(method가 갖는 식별자) &lt;br&gt;not in 블랙리스트" style="strokeWidth=2;html=1;shape=mxgraph.flowchart.decision;whiteSpace=wrap;" vertex="1" parent="WIyWlLk6GJQsqaUBKTNV-1">
          <mxGeometry x="90" y="943" width="240" height="50" as="geometry" />
        </mxCell>
        <mxCell id="7ZgR7wb_IzAUQrREWjO4-40" style="edgeStyle=orthogonalEdgeStyle;rounded=0;orthogonalLoop=1;jettySize=auto;html=1;exitX=0.5;exitY=1;exitDx=0;exitDy=0;" edge="1" parent="WIyWlLk6GJQsqaUBKTNV-1" source="7ZgR7wb_IzAUQrREWjO4-33" target="7ZgR7wb_IzAUQrREWjO4-35">
          <mxGeometry relative="1" as="geometry" />
        </mxCell>
        <mxCell id="7ZgR7wb_IzAUQrREWjO4-33" value="" style="verticalLabelPosition=bottom;verticalAlign=top;html=1;shape=process;whiteSpace=wrap;rounded=1;size=0.041666666666666664;arcSize=12;" vertex="1" parent="WIyWlLk6GJQsqaUBKTNV-1">
          <mxGeometry x="90" y="1013" width="240" height="60" as="geometry" />
        </mxCell>
        <mxCell id="7ZgR7wb_IzAUQrREWjO4-34" value="sha256(식별자 + SALT)" style="text;strokeColor=none;fillColor=none;align=center;verticalAlign=middle;spacingLeft=4;spacingRight=4;overflow=hidden;points=[[0,0.5],[1,0.5]];portConstraint=eastwest;rotatable=0;whiteSpace=wrap;html=1;" vertex="1" parent="WIyWlLk6GJQsqaUBKTNV-1">
          <mxGeometry x="120" y="1028" width="180" height="30" as="geometry" />
        </mxCell>
        <mxCell id="7ZgR7wb_IzAUQrREWjO4-41" style="edgeStyle=orthogonalEdgeStyle;rounded=0;orthogonalLoop=1;jettySize=auto;html=1;exitX=0.5;exitY=1;exitDx=0;exitDy=0;" edge="1" parent="WIyWlLk6GJQsqaUBKTNV-1" source="7ZgR7wb_IzAUQrREWjO4-35" target="7ZgR7wb_IzAUQrREWjO4-36">
          <mxGeometry relative="1" as="geometry" />
        </mxCell>
        <mxCell id="7ZgR7wb_IzAUQrREWjO4-35" value="identifier_hashed_dict에 등록" style="rounded=0;whiteSpace=wrap;html=1;" vertex="1" parent="WIyWlLk6GJQsqaUBKTNV-1">
          <mxGeometry x="90" y="1093" width="240" height="50" as="geometry" />
        </mxCell>
        <mxCell id="7ZgR7wb_IzAUQrREWjO4-48" style="edgeStyle=orthogonalEdgeStyle;rounded=0;orthogonalLoop=1;jettySize=auto;html=1;exitX=1;exitY=0.5;exitDx=0;exitDy=0;" edge="1" parent="WIyWlLk6GJQsqaUBKTNV-1" source="7ZgR7wb_IzAUQrREWjO4-36">
          <mxGeometry relative="1" as="geometry">
            <mxPoint x="210" y="860" as="targetPoint" />
            <Array as="points">
              <mxPoint x="380" y="1188" />
              <mxPoint x="380" y="860" />
              <mxPoint x="310" y="860" />
            </Array>
          </mxGeometry>
        </mxCell>
        <mxCell id="7ZgR7wb_IzAUQrREWjO4-36" value="method 뒤로 (리터럴 내부 인덱스) 갱신" style="rounded=0;whiteSpace=wrap;html=1;" vertex="1" parent="WIyWlLk6GJQsqaUBKTNV-1">
          <mxGeometry x="90" y="1163" width="240" height="50" as="geometry" />
        </mxCell>
        <mxCell id="7ZgR7wb_IzAUQrREWjO4-37" style="edgeStyle=orthogonalEdgeStyle;rounded=0;orthogonalLoop=1;jettySize=auto;html=1;exitX=0.5;exitY=1;exitDx=0;exitDy=0;entryX=0.5;entryY=0;entryDx=0;entryDy=0;entryPerimeter=0;" edge="1" parent="WIyWlLk6GJQsqaUBKTNV-1" source="7ZgR7wb_IzAUQrREWjO4-30" target="7ZgR7wb_IzAUQrREWjO4-31">
          <mxGeometry relative="1" as="geometry" />
        </mxCell>
        <mxCell id="7ZgR7wb_IzAUQrREWjO4-38" style="edgeStyle=orthogonalEdgeStyle;rounded=0;orthogonalLoop=1;jettySize=auto;html=1;exitX=0.5;exitY=1;exitDx=0;exitDy=0;exitPerimeter=0;entryX=0.5;entryY=0;entryDx=0;entryDy=0;entryPerimeter=0;" edge="1" parent="WIyWlLk6GJQsqaUBKTNV-1" source="7ZgR7wb_IzAUQrREWjO4-31" target="7ZgR7wb_IzAUQrREWjO4-32">
          <mxGeometry relative="1" as="geometry" />
        </mxCell>
        <mxCell id="7ZgR7wb_IzAUQrREWjO4-42" value="(리터럴 내부 인덱스) = (현재 인덱스)" style="rounded=0;whiteSpace=wrap;html=1;" vertex="1" parent="WIyWlLk6GJQsqaUBKTNV-1">
          <mxGeometry x="90" y="298" width="240" height="50" as="geometry" />
        </mxCell>
        <mxCell id="7ZgR7wb_IzAUQrREWjO4-45" style="edgeStyle=orthogonalEdgeStyle;rounded=0;orthogonalLoop=1;jettySize=auto;html=1;exitX=0.5;exitY=1;exitDx=0;exitDy=0;entryX=0.5;entryY=0;entryDx=0;entryDy=0;entryPerimeter=0;" edge="1" parent="WIyWlLk6GJQsqaUBKTNV-1" source="7ZgR7wb_IzAUQrREWjO4-42" target="7ZgR7wb_IzAUQrREWjO4-6">
          <mxGeometry relative="1" as="geometry" />
        </mxCell>
        <mxCell id="7ZgR7wb_IzAUQrREWjO4-56" style="edgeStyle=orthogonalEdgeStyle;rounded=0;orthogonalLoop=1;jettySize=auto;html=1;exitX=0.5;exitY=1;exitDx=0;exitDy=0;entryX=-0.02;entryY=0.525;entryDx=0;entryDy=0;entryPerimeter=0;" edge="1" parent="WIyWlLk6GJQsqaUBKTNV-1" source="7ZgR7wb_IzAUQrREWjO4-53" target="7ZgR7wb_IzAUQrREWjO4-4">
          <mxGeometry relative="1" as="geometry">
            <mxPoint x="40" y="90" as="targetPoint" />
            <Array as="points">
              <mxPoint x="210" y="1320" />
              <mxPoint x="50" y="1320" />
              <mxPoint x="50" y="97" />
            </Array>
          </mxGeometry>
        </mxCell>
        <mxCell id="7ZgR7wb_IzAUQrREWjO4-53" value="(현재 인덱스) = (리터럴 내부 인덱스)" style="rounded=0;whiteSpace=wrap;html=1;" vertex="1" parent="WIyWlLk6GJQsqaUBKTNV-1">
          <mxGeometry x="90" y="1250" width="240" height="50" as="geometry" />
        </mxCell>
        <mxCell id="7ZgR7wb_IzAUQrREWjO4-58" value="객체 리터럴 내부 getter 존재" style="strokeWidth=2;html=1;shape=mxgraph.flowchart.decision;whiteSpace=wrap;" vertex="1" parent="WIyWlLk6GJQsqaUBKTNV-1">
          <mxGeometry x="90" y="150" width="240" height="50" as="geometry" />
        </mxCell>
      </root>
    </mxGraphModel>
  </diagram>
</mxfile>
